<svg xmlns="http://www.w3.org/2000/svg" xmlns:xlink="http://www.w3.org/1999/xlink" viewBox="0,0,256,256" width="50px" height="50px"><g fill="#33138d" fill-rule="nonzero" stroke="none" stroke-width="1" stroke-linecap="butt" stroke-linejoin="miter" stroke-miterlimit="10" stroke-dasharray="" stroke-dashoffset="0" font-family="none" font-weight="none" font-size="none" text-anchor="none" style="mix-blend-mode: normal"><g transform="scale(5.12,5.12)"><path d="M6,2c-0.55078,0 -1,0.44922 -1,1v36c0,0.55469 0.44922,1 1,1c12.05859,0 16.82422,2.68359 18,3.5v-36.84375c-2.46875,-1.91016 -7.78125,-4.65625 -18,-4.65625zM44,2c-10.21875,0 -15.53125,2.74609 -18,4.65625v36.84375c1.17578,-0.81641 5.94531,-3.5 18,-3.5c0.55469,0 1,-0.44531 1,-1v-36c0,-0.55078 -0.44531,-1 -1,-1zM2.84375,8c-1.57031,0 -2.84375,1.27344 -2.84375,2.84375v33.3125c0,1.57031 1.27344,2.84375 2.84375,2.84375h16.625c0.71094,0.98047 2.52734,3 5.53125,3c3.00391,0 4.82031,-2.01953 5.53125,-3h16.625c1.57031,0 2.84375,-1.26953 2.84375,-2.84375v-33.3125c0,-1.57031 -1.27344,-2.84375 -2.84375,-2.84375h-0.15625v31c0,1.65234 -1.34766,3 -3,3c-11.75,0 -16.12109,2.60156 -16.875,3.125l-0.125,0.125c-0.69531,0.55078 -1.01562,1.4375 -1.96875,1.4375c-0.95312,0 -1.11328,-0.80078 -1.9375,-1.375l-0.21875,-0.1875c-0.75391,-0.52344 -5.11719,-3.125 -16.875,-3.125c-1.65234,0 -3,-1.34766 -3,-3v-31z"></path></g></g></svg>